<svg width="425" height="425" xmlns="http://www.w3.org/2000/svg" fill="#fff">
    <svg width="425" height="425" xmlns="http://www.w3.org/2000/svg" fill="#fff">
        <line id="svg_1" stroke="#003D74" stroke-width="25" y2="423" x2="20" y1="23" x1="20"/>
        <line stroke="#003D74" id="svg_2" stroke-width="25" y2="13.00003" x2="78.9998" y1="12.99996" x1="7"/>
        <line id="svg_3" stroke-width="25" y2="412.99997" x2="176.99965" y1="412.99997" x1="7.71393" stroke="#003D74"/>
        <line id="svg_4" stroke="#003D74" stroke-width="25" y2="348.025" x2="79" y1="75.4997" x1="78.66998"/>
        <line id="svg_5" stroke="#003D74" stroke-width="25" y2="425.55953" x2="403.99987" y1="1.05953" x1="403.99987"/>
        <line id="svg_6" stroke="#003D74" stroke-width="25" y2="413.00046" x2="329.00038" y1="413.00046" x1="404.00038"/>
        <line id="svg_7" stroke="#003D74" stroke-width="25" y2="11.43145" x2="245.678" y1="12.99968" x1="403.99983"/>
        <line id="svg_8" stroke="#003D74" stroke-width="25" y2="96.0994" x2="217.7809" y1="4.7937" x1="255.9045"/>
        <line id="svg_9" stroke="#003D74" stroke-width="25" y2="425.499" x2="328.725" y1="75.515" x1="329.261"/>
        <line id="svg_10" stroke="#003D74" stroke-width="25" y2="211.675" x2="252.6442" y1="80.5713" x1="306.0355"/>
        <line id="svg_11" stroke="#003D74" stroke-width="25" y2="87.99999" x2="294.44523" y1="87.99999" x1="328.99962"/>
        <line id="svg_12" stroke="#003D74" stroke-width="25" y2="88.0004" x2="103.99961" y1="88.0004" x1="78.99961"/>
        <line id="svg_13" stroke="#003D74" stroke-width="25" y2="335.52398" x2="103.05586" y1="335.52397" x1="78.05586"/>
        <path id="svg_14" fill="none" stroke="#003D74" stroke-width="25" d="m74.4619,13.00045c63.15121,8.98108 113.4881,44.85846 145.48683,93.41051"/>
        <path id="svg_15" fill="none" stroke="#003D74" stroke-width="25" d="m254.1873,207.91774c0,0 0,0 0,0"/>
        <path id="svg_16" fill="none" stroke="#003D74" stroke-width="25" d="m254.1873,207.91774c0,0 0,0 0,0"/>
        <path id="svg_17" fill="none" stroke="#003D74" stroke-width="26.42261" d="m254.18315,206.46176c1.37515,46.55721 -12.38373,94.46344 -44.33576,136.21576c-6.84602,8.94603 -14.33863,17.27325 -22.38979,24.93088"/>
        <path id="svg_18" fill="none" stroke="#003D74" stroke-width="26.83345" d="m97.76087,87.42509c103.83454,55.88473 103.25496,192.84542 -1.04945,248.00002"/>
        <line id="svg_19" stroke="#003D74" stroke-width="25" y2="418.4675" x2="165.8059" y1="362.6596" x1="189.5638"/>
    </svg>
</svg>