<svg width="425" height="425" xmlns="http://www.w3.org/2000/svg">
    <g>
        <path id="svg_1" stroke-width="25" stroke="#000000" d="m13.76324,0.47788l0,424.87799"/>
        <path id="svg_2" stroke-width="25" stroke="#000000" d="m12.00036,12.99996l74.99947,0.00007"/>
        <path id="svg_3" stroke-linejoin="bevel" stroke-width="25" stroke="#000000" d="m11.99965,412.99997l173,0"/>
        <path id="svg_4" stroke-width="25" stroke="#000000" d="m86.66998,75.4997l0.33001,272.52498"/>
        <path id="svg_5" stroke-width="25" stroke="#000000" d="m411.99987,1.05953l0,424.5"/>
        <path id="svg_6" stroke-width="25" stroke="#000000" d="m412.00038,413.00046l-75,0"/>
        <path id="svg_7" stroke-width="25" stroke="#000000" d="m411.99983,12.99968l-158.32192,-1.56823"/>
        <path id="svg_8" stroke-width="25" stroke="#000000" d="m263.9045,4.7937l-38.1236,91.3057"/>
        <path id="svg_9" stroke-width="25" stroke="#000000" d="m337.26071,75.51467l-0.53562,349.9848"/>
        <path id="svg_10" stroke-width="25" stroke="#000000" d="m314.03554,80.57129l-53.39134,131.10388"/>
        <path id="svg_11" stroke-width="25" stroke="#000000" d="m336.99962,87.99999l-34.55439,0"/>
        <path id="svg_12" stroke-width="25" stroke="#000000" d="m86.99961,88.0004l25,0"/>
        <path id="svg_13" stroke-width="25" stroke="#000000" d="m86.05586,335.52397l25,0.00001"/>
        <path id="svg_14" fill-opacity="null" fill="none" stroke="#000000" stroke-width="25" d="m82.4619,13.00045c63.15121,8.98108 113.4881,44.85846 145.48683,93.41051"/>
        <path id="svg_15" fill-opacity="null" fill="none" stroke="#000000" stroke-width="25" d="m262.1873,207.91774c0,0 0,0 0,0"/>
        <path id="svg_16" fill-opacity="null" fill="none" stroke="#000000" stroke-width="25" d="m262.1873,207.91774c0,0 0,0 0,0"/>
        <path id="svg_17" fill-opacity="null" fill="none" stroke="#000000" stroke-width="26.42261" d="m262.18315,206.46176c1.37515,46.55721 -12.38373,94.46344 -44.33576,136.21576c-6.84602,8.94603 -14.33863,17.27325 -22.38979,24.93088"/>
        <path id="svg_18" fill-opacity="null" fill="none" stroke="#000000" stroke-width="26.83345" d="m105.76087,87.42509c103.83454,55.88473 103.25496,192.84542 -1.04945,248.00002"/>
        <path id="svg_19" stroke-linejoin="bevel" stroke-width="25" stroke="#000000" d="m197.56383,362.65958l-23.75796,55.80793"/>
    </g>
</svg>